<svg xmlns="http://www.w3.org/2000/svg" viewBox="0 0 100 100" width="100" height="100">
  <defs>
    <linearGradient id="qrGradient" x1="0%" y1="0%" x2="100%" y2="100%">
      <stop offset="0%" style="stop-color:#00d4ff;stop-opacity:1" />
      <stop offset="50%" style="stop-color:#ff6b9d;stop-opacity:1" />
      <stop offset="100%" style="stop-color:#c471ed;stop-opacity:1" />
    </linearGradient>
  </defs>
  
  <!-- Background -->
  <rect width="100" height="100" fill="url(#qrGradient)" rx="20"/>
  
  <!-- QR Code Pattern -->
  <!-- Top-left corner -->
  <rect x="10" y="10" width="25" height="25" fill="white" rx="3"/>
  <rect x="15" y="15" width="15" height="15" fill="url(#qrGradient)" rx="2"/>
  <rect x="20" y="20" width="5" height="5" fill="white" rx="1"/>
  
  <!-- Top-right corner -->
  <rect x="65" y="10" width="25" height="25" fill="white" rx="3"/>
  <rect x="70" y="15" width="15" height="15" fill="url(#qrGradient)" rx="2"/>
  <rect x="75" y="20" width="5" height="5" fill="white" rx="1"/>
  
  <!-- Bottom-left corner -->
  <rect x="10" y="65" width="25" height="25" fill="white" rx="3"/>
  <rect x="15" y="70" width="15" height="15" fill="url(#qrGradient)" rx="2"/>
  <rect x="20" y="75" width="5" height="5" fill="white" rx="1"/>
  
  <!-- Data pattern -->
  <rect x="45" y="15" width="4" height="4" fill="white" rx="1"/>
  <rect x="55" y="15" width="4" height="4" fill="white" rx="1"/>
  <rect x="45" y="25" width="4" height="4" fill="white" rx="1"/>
  <rect x="55" y="25" width="4" height="4" fill="white" rx="1"/>
  
  <rect x="15" y="45" width="4" height="4" fill="white" rx="1"/>
  <rect x="25" y="45" width="4" height="4" fill="white" rx="1"/>
  <rect x="15" y="55" width="4" height="4" fill="white" rx="1"/>
  <rect x="25" y="55" width="4" height="4" fill="white" rx="1"/>
  
  <rect x="45" y="45" width="4" height="4" fill="white" rx="1"/>
  <rect x="55" y="45" width="4" height="4" fill="white" rx="1"/>
  <rect x="45" y="55" width="4" height="4" fill="white" rx="1"/>
  <rect x="55" y="55" width="4" height="4" fill="white" rx="1"/>
  
  <rect x="70" y="45" width="4" height="4" fill="white" rx="1"/>
  <rect x="80" y="45" width="4" height="4" fill="white" rx="1"/>
  <rect x="70" y="55" width="4" height="4" fill="white" rx="1"/>
  <rect x="80" y="55" width="4" height="4" fill="white" rx="1"/>
  
  <rect x="45" y="70" width="4" height="4" fill="white" rx="1"/>
  <rect x="55" y="70" width="4" height="4" fill="white" rx="1"/>
  <rect x="45" y="80" width="4" height="4" fill="white" rx="1"/>
  <rect x="55" y="80" width="4" height="4" fill="white" rx="1"/>
  
  <!-- Center logo area -->
  <circle cx="50" cy="50" r="8" fill="white"/>
  <circle cx="50" cy="50" r="5" fill="url(#qrGradient)"/>
</svg>
